<svg width="181" height="200" viewBox="0 0 181 200" fill="none" xmlns="http://www.w3.org/2000/svg">
<g clip-path="url(#clip0_58_3)">
<mask id="mask0_58_3" style="mask-type:luminance" maskUnits="userSpaceOnUse" x="-1899" y="-1472" width="3979" height="3979">
<path d="M-1898.27 -1471.51H2079.36V2506.12H-1898.27V-1471.51Z" fill="white"/>
</mask>
<g mask="url(#mask0_58_3)">
<path d="M125.944 99.4537C133.905 92.7235 139.157 82.7934 139.157 71.4671C139.157 52.3447 123.645 36.8339 104.524 36.8339H88.1921V53.2476H104.524C114.536 53.2476 122.744 61.4554 122.744 71.4671C122.744 82.6303 113.633 91.7391 102.472 91.7391H71.5319V108.318H104.524C111.089 108.318 116.833 111.764 120.035 117.017H137.761C135.709 109.959 131.524 103.885 125.944 99.4537Z" fill="#F13E28"/>
<path d="M122.762 126.899V146.843H101.671V163.257H139.176V126.899H122.762Z" fill="#262626"/>
<path d="M57.9662 133.065V83.4956H41.5525V133.065C41.5525 149.725 55.0128 163.267 71.6731 163.267H91.78V146.853H71.6731C64.1216 146.772 57.9662 140.698 57.9662 133.065Z" fill="#F13E28"/>
<path d="M41.5385 36.8059V73.573H57.9522V53.2195H78.3057V36.8059H41.5385Z" fill="#262626"/>
<path d="M169.698 80.56V31.504C169.694 14.082 155.575 -0.0286316 138.153 -0.0345981V14.6448C147.467 14.6627 155.002 22.1983 155.02 31.504V80.56C155.02 87.7436 157.988 94.2152 162.745 98.871C157.988 103.527 155.02 110 155.02 117.184V168.42C155.002 177.723 147.467 185.261 138.153 185.277V199.956C155.575 199.952 169.694 185.842 169.698 168.42V117.184C169.71 111.126 174.614 106.22 180.672 106.21V91.5303C174.614 91.5184 169.71 86.616 169.698 80.56Z" fill="#262626"/>
<path d="M6.93329 31.4361V85.2872C6.92533 89.1753 3.76909 92.3295 -0.113075 92.3375V107.015C3.77108 107.023 6.92533 110.173 6.93329 114.065V168.35C6.93925 185.772 21.0539 199.883 38.4719 199.888V185.209C29.1682 185.191 21.6286 177.656 21.6127 168.35V114.065C21.6107 108.518 19.4688 103.513 16.052 99.6762C19.4688 95.8378 21.6107 90.834 21.6127 85.2872V31.4361C21.6286 22.1304 29.1682 14.5948 38.4719 14.5769V-0.102515C21.0539 -0.0965485 6.93925 14.0141 6.93329 31.4361Z" fill="#262626"/>
</g>
</g>
<defs>
<clipPath id="clip0_58_3">
<rect width="180.847" height="200" fill="white"/>
</clipPath>
</defs>
</svg>
